{"title":"Shrek Forever After-AC3-XviD-BRRip[Eng]2010","uid":5966552,"size":1464108236,"categoryP":"video","categoryS":"movies","magnet":"?xt=urn:btih:6265fa5f31e770e966b38bc31a766e0139b68864&amp;dn=Shrek+Forever+After-AC3-XviD-BRRip%5BEng%5D2010&amp;tr=udp%3A%2F%2Ftracker.openbittorrent.com%3A80&amp;tr=udp%3A%2F%2Fopen.demonii.com%3A1337&amp;tr=udp%3A%2F%2Ftracker.coppersurfer.tk%3A6969&amp;tr=udp%3A%2F%2Fexodus.desync.com%3A6969","seeders":0,"leechers":1,"uploader":"FatFreddy31","files":-1,"time":1290124606,"description":"Shrek Forever After (2010) Alternatieve titels: Shrek Voor Eeuwig en Altijd, The Final Chapter, Shrek 4\n\nRumpelstiltskin tricks a mid-life crisis burdened Shrek into allowing himself to be erased from existence and cast in a dark alternate timeline where Rumpel rules supreme..\n &lt;a href=&quot;\nhttp://www.imdb.com/title/tt0892791/&quot; rel=&quot;nofollow&quot; target=&quot;_NEW&quot;&gt;\nhttp://www.imdb.com/title/tt0892791/&lt;/a&gt;\n\nSubtitles (srt) : Dutch, English.\n\nCovers included.\n\nIn plaats van het afschrikken van menig dorpsbewoner is Shrek (Mike Myers) inmiddels een echte familieman geworden. Shrek komt in contact met de gladde praatjesmaker Repelsteeltje. Hierdoor komt hij tot zijn schrik terecht in een alternatieve versie van zijn wereld, Far Far Away, waar er gejaagd wordt op Ogres en hij Fiona (Cameron Diaz) helemaal nooit ontmoet heeft. Aan hem de taak om zijn vertrouwde wereld weer terug te krijgen..\n &lt;a href=&quot;\nhttp://www.moviemeter.nl/film/58677&quot; rel=&quot;nofollow&quot; target=&quot;_NEW&quot;&gt;\nhttp://www.moviemeter.nl/film/58677&lt;/a&gt;\n\nOndertitels (srt) : Engels, Nederlands.\n\nHoesjes bijgevoegd.\n\n\nGeneral\nComplete name                    : Shrek Forever After-AC3-XviD-BRRip[Eng]2010\\Shrek Forever After-AC3-XviD-BRRip[Eng]2010.avi\nFormat                           : AVI\nFormat/Info                      : Audio Video Interleave\nFile size                        : 1.36 GiB\nDuration                         : 1h 33mn\nOverall bit rate                 : 2 094 Kbps\nWriting application              : VirtualDubMod 1.5.4.1 (build 2178/release)\nWriting library                  : VirtualDubMod build 2178/release\nSource                           : Shrek.Forever.After.720p.BluRay.x264-REFiNED \n\nVideo\nID                               : 0\nFormat                           : MPEG-4 Visual\nFormat profile                   : Simple@L3\nFormat settings, BVOP            : No\nFormat settings, QPel            : No\nFormat settings, GMC             : No warppoints\nFormat settings, Matrix          : Default (H.263)\nCodec ID                         : XVID\nCodec ID/Hint                    : XviD\nDuration                         : 1h 33mn\nBit rate                         : 1 637 Kbps\nWidth                            : 720 pixels\nHeight                           : 304 pixels\nDisplay aspect ratio             : 2.35:1\nFrame rate                       : 23.976 fps\nResolution                       : 8 bits\nColorimetry                      : 4:2:0\nScan type                        : Progressive\nBits/(Pixel*Frame)               : 0.312\nStream size                      : 1.07 GiB (78%)\nWriting library                  : XviD 1.1.2 (UTC 2006-11-01)\n\nAudio\nID                               : 1\nFormat                           : AC-3\nFormat/Info                      : Audio Coding 3\nCodec ID                         : 2000\nDuration                         : 1h 33mn\nBit rate mode                    : Constant\nBit rate                         : 448 Kbps\nChannel(s)                       : 6 channels\nChannel positions                : Front: L C R, Surround: L R, LFE\nSampling rate                    : 48.0 KHz\nStream size                      : 299 MiB (21%)\nAlignment                        : Split accross interleaves\nInterleave, duration             : 42 ms (1.00 video frame)\nInterleave, preload duration     : 500 ms\n\nThanks to Simply ReleaseS Toppers for the Dutch subs.Nice one peeps!","torrent":{"xt":"urn:btih:6265fa5f31e770e966b38bc31a766e0139b68864","amp;dn":"Shrek+Forever+After-AC3-XviD-BRRip%5BEng%5D2010","amp;tr":["udp%3A%2F%2Ftracker.openbittorrent.com%3A80","udp%3A%2F%2Fopen.demonii.com%3A1337","udp%3A%2F%2Ftracker.coppersurfer.tk%3A6969","udp%3A%2F%2Fexodus.desync.com%3A6969"],"infoHash":"6265fa5f31e770e966b38bc31a766e0139b68864","infoHashBuffer":{"type":"Buffer","data":[98,101,250,95,49,231,112,233,102,179,139,195,26,118,110,1,57,182,136,100]},"announce":[],"urlList":[]}}